<svg width="100" height="36" viewBox="0 0 130 40" fill="none" xmlns="http://www.w3.org/2000/svg">
    <path
        d="M11.2939 15.7874H16.4127L23.2561 27.6985L27.2813 27.6999L20.4379 15.7874H26.9452L25.3297 12.9663H12.9094L11.2939 15.7874Z"
        fill="#1E1E1E" />
    <path d="M11 27.6984H15.0465L17.4647 23.4774L15.4408 19.9458L11 27.6984Z" fill="#1E1E1E" />
    <path fill-rule="evenodd" clip-rule="evenodd"
        d="M19.0956 35.7409C27.7023 35.7409 34.6794 28.7638 34.6794 20.1571C34.6794 11.5504 27.7023 4.57336 19.0956 4.57336C10.4889 4.57336 3.51183 11.5504 3.51183 20.1571C3.51183 28.7638 10.4889 35.7409 19.0956 35.7409ZM19.0956 39.2527C29.6418 39.2527 38.1912 30.7033 38.1912 20.1571C38.1912 9.61092 29.6418 1.06152 19.0956 1.06152C8.54939 1.06152 0 9.61092 0 20.1571C0 30.7033 8.54939 39.2527 19.0956 39.2527Z"
        fill="#1E1E1E" />
    <path
        d="M56.9391 26.2602C56.6977 26.3503 56.4762 26.3953 56.2762 26.3953C55.7341 26.3953 55.3216 26.2296 55.0388 25.8981C54.756 25.5667 54.6173 25.0786 54.6173 24.4355V18.0087H58.3891L56.4492 14.6295H54.6173V9.92285H50.6347V14.6295H48.1904V18.0087H50.6347V25.3091C50.6347 26.8384 51.0616 28.0146 51.9172 28.8396C52.771 29.6645 54.0337 30.077 55.7034 30.077C56.287 30.077 56.8743 29.9618 57.4687 29.7294C58.0613 29.4988 58.5999 29.2016 59.0826 28.8396L57.6956 25.8531C57.4344 26.0332 57.1823 26.1701 56.9409 26.2602H56.9391Z"
        fill="#1E1E1E" />
    <path
        d="M77.0914 26.2602C76.8501 26.3503 76.6285 26.3953 76.4286 26.3953C75.8864 26.3953 75.4739 26.2296 75.1911 25.8981C74.9083 25.5667 74.7696 25.0786 74.7696 24.4355V18.0087H78.5414L76.6015 14.6295H74.7696V9.92285H70.7871V14.6295H68.3428V18.0087H70.7871V25.3091C70.7871 26.8384 71.214 28.0146 72.0696 28.8396C72.9234 29.6645 74.186 30.077 75.8558 30.077C76.4394 30.077 77.0266 29.9618 77.621 29.7294C78.2136 29.4988 78.7522 29.2016 79.2349 28.8396L77.848 25.8531C77.5868 26.0332 77.3346 26.1701 77.0932 26.2602H77.0914Z"
        fill="#1E1E1E" />
    <path d="M65.6574 14.6294H61.6748V30.0751H65.6574V14.6294Z" fill="#1E1E1E" />
    <path
        d="M91.7229 15.0817C90.7178 14.5396 89.4606 14.2676 87.9511 14.2676C86.7046 14.2676 85.6437 14.4693 84.7683 14.871C83.8929 15.2727 83.1886 15.7806 82.6572 16.3949C82.1241 17.0091 81.717 17.6377 81.436 18.2808L84.9953 19.4876C85.3375 18.904 85.75 18.4825 86.2327 18.2213C86.7155 17.9601 87.2594 17.8286 87.861 17.8286C88.5437 17.8286 89.0931 17.9944 89.5056 18.3258C89.9181 18.6572 90.2189 19.14 90.4098 19.774C90.4873 20.028 90.5467 20.3054 90.5935 20.6044H87.1676C85.2168 20.6044 83.702 21.0115 82.6266 21.8256C81.5513 22.6398 81.0127 23.852 81.0127 25.4605C81.0127 26.9286 81.5098 28.0652 82.5059 28.8703C83.502 29.6755 84.9052 30.0771 86.7155 30.0771C88.5257 30.0771 89.7974 29.5044 90.5917 28.357C90.653 28.2687 90.7124 28.175 90.7683 28.0814L90.7881 30.0771H94.74V21.3591C94.74 19.8316 94.4878 18.5383 93.9853 17.4828C93.4827 16.4273 92.728 15.6275 91.7229 15.0835V15.0817ZM90.2441 25.0823C89.9631 25.5758 89.5758 25.9775 89.0823 26.2891C88.5887 26.6007 88.0214 26.7574 87.3783 26.7574C86.6542 26.7574 86.0904 26.6314 85.6887 26.381C85.2871 26.1306 85.0853 25.783 85.0853 25.3399C85.0853 24.7779 85.3357 24.3402 85.84 24.0268C86.3426 23.7151 87.2468 23.5584 88.5545 23.5584H90.6656C90.6656 24.0808 90.5251 24.5887 90.2441 25.0823Z"
        fill="#1E1E1E" />
    <path
        d="M110.441 15.9408C109.465 14.824 108.062 14.2656 106.234 14.2656C105.086 14.2656 104.092 14.5628 103.247 15.1554C102.692 15.5445 102.22 16.0489 101.826 16.6649L101.649 14.6277H97.9082V30.0734H101.891V21.8075C101.891 20.5412 102.166 19.5847 102.721 18.9417C103.274 18.2986 104.063 17.987 105.09 18.0068C105.652 18.0068 106.145 18.1329 106.569 18.3833C106.99 18.6355 107.318 19.0425 107.548 19.6045C107.779 20.1683 107.896 20.9627 107.896 21.9876V30.0734H111.879V21.0834C111.899 18.7706 111.421 17.0558 110.445 15.939L110.441 15.9408Z"
        fill="#1E1E1E" />
</svg>